# xmcd
#
# Track frame offsets:
#	150
#	42461
#	68408
#	91454
#	129054
#	190103
#	206506
#	238997
#	263197
#	286333
#	336875
#
# Disc length: 4716 seconds
#
# Revision: 0
# Processed by: cddbd v1.5.2PL0 Copyright (c) Steve Scherf et al.
# Submitted via: EZCDAudioConverter 2.1.7.1
#
DISCID=9d126a0b
DTITLE=V/A - Let The Electric Children Play 2/3
DYEAR=1900
DGENRE=
TTITLE0=Stray - All In Your Mind
TTITLE1=Marsupilami - Born To Be Free
TTITLE2=Jody Grind - We've Had It
TTITLE3=Jan Dukes De Grey - Mice And Rats In The Loft
TTITLE4=Peter Bardens - Homage To The God Of Light
TTITLE5=Stray - Around The World In 80 Days
TTITLE6=Mr. Fox - Mendle
TTITLE7=Marsupilami - Prelude To The Arena
TTITLE8=Unicorn - Don't Ever Give Up Trying
TTITLE9=Pentangle - Reflection
TTITLE10=Skin Alley - Skin Valley Serenade
EXTD=
EXTT0=
EXTT1=
EXTT2=
EXTT3=
EXTT4=
EXTT5=
EXTT6=
EXTT7=
EXTT8=
EXTT9=
EXTT10=
PLAYORDER=
